<?xml version="1.0" encoding="utf-8" ?>
<?xml-stylesheet href="chalk-style.css" type="text/css" title="chalk-style" alternate="no" media="screen"?>
<svg baseProfile="tiny" height="100%" version="1.2" width="100%" xmlns="http://www.w3.org/2000/svg" xmlns:ev="http://www.w3.org/2001/xml-events" xmlns:xlink="http://www.w3.org/1999/xlink"><defs /><g class="chalk-list-item"><g class="chalk-list-index"><rect height="20" width="40" x="5.0" y="22.0" /><text x="10.0" y="37.0">  0</text></g></g><g class="chalk-list-item"><g class="chalk-list-index"><rect height="20" width="40" x="5.0" y="44.0" /><text x="10.0" y="59.0">  1</text></g></g><g class="chalk-list-item"><g class="chalk-list-index"><rect height="20" width="40" x="5.0" y="66.0" /><text x="10.0" y="81.0">  2</text></g></g><g class="chalk-list-item"><g class="chalk-list-index"><rect height="20" width="40" x="5.0" y="88.0" /><text x="10.0" y="103.0">  3</text></g></g><g class="chalk-list-item"><g class="chalk-list-index"><rect height="20" width="40" x="5.0" y="110.0" /><text x="10.0" y="125.0">  4</text></g></g><g class="chalk-list-item"><g class="chalk-list-index"><rect height="20" width="40" x="5.0" y="132.0" /><text x="10.0" y="147.0">  5</text></g></g><g class="chalk-list-item"><g class="chalk-list-index"><rect height="20" width="40" x="5.0" y="154.0" /><text x="10.0" y="169.0">  6</text></g></g><g class="chalk-list-item"><g class="chalk-list-index"><rect height="20" width="40" x="5.0" y="176.0" /><text x="10.0" y="191.0">  7</text></g></g><g class="chalk-list-item"><g class="chalk-list-index"><rect height="20" width="40" x="5.0" y="198.0" /><text x="10.0" y="213.0">  8</text></g></g><g class="chalk-list-item"><g class="chalk-list-index"><rect height="20" width="40" x="5.0" y="220.0" /><text x="10.0" y="235.0">  9</text></g></g><g class="chalk-list-item"><g class="chalk-list-index"><rect height="20" width="40" x="5.0" y="242.0" /><text x="10.0" y="257.0"> 10</text></g></g><g class="chalk-list-item"><g class="chalk-list-index"><rect height="20" width="40" x="5.0" y="264.0" /><text x="10.0" y="279.0"> 11</text></g></g><g class="chalk-list-item"><g class="chalk-list-index"><rect height="20" width="40" x="5.0" y="286.0" /><text x="10.0" y="301.0"> 12</text></g></g><g class="chalk-list-item"><g class="chalk-list-index"><rect height="20" width="40" x="5.0" y="308.0" /><text x="10.0" y="323.0"> 13</text></g></g><g class="chalk-list-item"><g class="chalk-list-index"><rect height="20" width="40" x="5.0" y="330.0" /><text x="10.0" y="345.0"> 14</text></g></g><g class="chalk-list-item"><g class="chalk-list-index"><rect height="20" width="40" x="5.0" y="352.0" /><text x="10.0" y="367.0"> 15</text></g></g><g class="chalk-list-item"><g class="chalk-list-index"><rect height="20" width="40" x="5.0" y="374.0" /><text x="10.0" y="389.0"> 16</text></g></g><g class="chalk-list-item"><g class="chalk-list-index"><rect height="20" width="40" x="5.0" y="396.0" /><text x="10.0" y="411.0"> 17</text></g></g><g class="chalk-list-item"><g class="chalk-list-index"><rect height="20" width="40" x="5.0" y="418.0" /><text x="10.0" y="433.0"> 18</text></g></g><g class="chalk-list-item"><g class="chalk-list-index"><rect height="20" width="40" x="5.0" y="440.0" /><text x="10.0" y="455.0"> 19</text></g></g><g class="chalk-list-item"><g class="chalk-list-index"><rect height="20" width="40" x="5.0" y="462.0" /><text x="10.0" y="477.0"> 20</text></g></g><g class="chalk-list-item"><g class="chalk-list-index"><rect height="20" width="40" x="5.0" y="484.0" /><text x="10.0" y="499.0"> 21</text></g></g><g class="chalk-list-item"><g class="chalk-list-index"><rect height="20" width="40" x="5.0" y="506.0" /><text x="10.0" y="521.0"> 22</text></g></g><g class="chalk-list-item"><g class="chalk-list-index"><rect height="20" width="40" x="5.0" y="528.0" /><text x="10.0" y="543.0"> 23</text></g></g><g class="chalk-list-item"><g class="chalk-list-index"><rect height="20" width="40" x="5.0" y="550.0" /><text x="10.0" y="565.0"> 24</text></g></g><g class="chalk-list-item"><g class="chalk-list-index"><rect height="20" width="40" x="5.0" y="572.0" /><text x="10.0" y="587.0"> 25</text></g></g><g class="chalk-list-item"><g class="chalk-list-index"><rect height="20" width="40" x="5.0" y="594.0" /><text x="10.0" y="609.0"> 26</text></g></g><g class="chalk-list-item"><g class="chalk-list-index"><rect height="20" width="40" x="5.0" y="616.0" /><text x="10.0" y="631.0"> 27</text></g></g><g class="chalk-list-item"><g class="chalk-list-index"><rect height="20" width="40" x="5.0" y="638.0" /><text x="10.0" y="653.0"> 28</text></g></g><g class="chalk-list-item"><g class="chalk-list-index"><rect height="20" width="40" x="5.0" y="660.0" /><text x="10.0" y="675.0"> 29</text></g></g><g class="chalk-list-item"><g class="chalk-list-index"><rect height="20" width="40" x="5.0" y="682.0" /><text x="10.0" y="697.0"> 30</text></g></g><g class="chalk-list-item"><g class="chalk-list-index"><rect height="20" width="40" x="5.0" y="704.0" /><text x="10.0" y="719.0"> 31</text></g></g><g class="chalk-list-item"><g class="chalk-list-index"><rect height="20" width="40" x="5.0" y="726.0" /><text x="10.0" y="741.0"> 32</text></g></g><g class="chalk-list-item"><g class="chalk-list-index"><rect height="20" width="40" x="5.0" y="748.0" /><text x="10.0" y="763.0"> 33</text></g></g><g class="chalk-list-item"><g class="chalk-list-index"><rect height="20" width="40" x="5.0" y="770.0" /><text x="10.0" y="785.0"> 34</text></g></g><g class="chalk-list-item"><g class="chalk-list-index"><rect height="20" width="40" x="5.0" y="792.0" /><text x="10.0" y="807.0"> 35</text></g></g><g class="chalk-list-item"><g class="chalk-list-index"><rect height="20" width="40" x="5.0" y="814.0" /><text x="10.0" y="829.0"> 36</text></g></g><g class="chalk-list-item"><g class="chalk-list-index"><rect height="20" width="40" x="5.0" y="836.0" /><text x="10.0" y="851.0"> 37</text></g></g><g class="chalk-list-item"><g class="chalk-list-index"><rect height="20" width="40" x="5.0" y="858.0" /><text x="10.0" y="873.0"> 38</text></g></g><g class="chalk-list-item"><g class="chalk-list-index"><rect height="20" width="40" x="5.0" y="880.0" /><text x="10.0" y="895.0"> 39</text></g></g><g class="chalk-list-item"><g class="chalk-list-index"><rect height="20" width="40" x="5.0" y="902.0" /><text x="10.0" y="917.0"> 40</text></g></g><g class="chalk-list-item"><g class="chalk-list-index"><rect height="20" width="40" x="5.0" y="924.0" /><text x="10.0" y="939.0"> 41</text></g></g><g class="chalk-list-item"><g class="chalk-list-index"><rect height="20" width="40" x="5.0" y="946.0" /><text x="10.0" y="961.0"> 42</text></g></g><g class="chalk-list-item"><g class="chalk-list-index"><rect height="20" width="40" x="5.0" y="968.0" /><text x="10.0" y="983.0"> 43</text></g></g><g class="chalk-list-item"><g class="chalk-list-index"><rect height="20" width="40" x="5.0" y="990.0" /><text x="10.0" y="1005.0"> 44</text></g></g><g class="chalk-list-item"><g class="chalk-list-index"><rect height="20" width="40" x="5.0" y="1012.0" /><text x="10.0" y="1027.0"> 45</text></g></g><g class="chalk-list-item"><g class="chalk-list-index"><rect height="20" width="40" x="5.0" y="1034.0" /><text x="10.0" y="1049.0"> 46</text></g></g><g class="chalk-list-item"><g class="chalk-list-index"><rect height="20" width="40" x="5.0" y="1056.0" /><text x="10.0" y="1071.0"> 47</text></g></g><g class="chalk-list-item"><g class="chalk-list-index"><rect height="20" width="40" x="5.0" y="1078.0" /><text x="10.0" y="1093.0"> 48</text></g></g><g class="chalk-list-item"><g class="chalk-list-index"><rect height="20" width="40" x="5.0" y="1100.0" /><text x="10.0" y="1115.0"> 49</text></g></g><g class="chalk-list-item"><g class="chalk-list-index"><rect height="20" width="40" x="5.0" y="1122.0" /><text x="10.0" y="1137.0"> 50</text></g></g><g class="chalk-list-item"><g class="chalk-list-index"><rect height="20" width="40" x="5.0" y="1144.0" /><text x="10.0" y="1159.0"> 51</text></g></g><g class="chalk-list-item"><g class="chalk-list-index"><rect height="20" width="40" x="5.0" y="1166.0" /><text x="10.0" y="1181.0"> 52</text></g></g><g class="chalk-list-item"><g class="chalk-list-index"><rect height="20" width="40" x="5.0" y="1188.0" /><text x="10.0" y="1203.0"> 53</text></g></g><g class="chalk-list-item"><g class="chalk-list-index"><rect height="20" width="40" x="5.0" y="1210.0" /><text x="10.0" y="1225.0"> 54</text></g></g><g class="chalk-list-item"><g class="chalk-list-index"><rect height="20" width="40" x="5.0" y="1232.0" /><text x="10.0" y="1247.0"> 55</text></g></g><g class="chalk-list-item"><g class="chalk-list-index"><rect height="20" width="40" x="5.0" y="1254.0" /><text x="10.0" y="1269.0"> 56</text></g></g><g class="chalk-list-item"><g class="chalk-list-index"><rect height="20" width="40" x="5.0" y="1276.0" /><text x="10.0" y="1291.0"> 57</text></g></g><g class="chalk-list-item"><g class="chalk-list-index"><rect height="20" width="40" x="5.0" y="1298.0" /><text x="10.0" y="1313.0"> 58</text></g></g><g class="chalk-list-item"><g class="chalk-list-index"><rect height="20" width="40" x="5.0" y="1320.0" /><text x="10.0" y="1335.0"> 59</text></g></g><g class="chalk-list-item"><g class="chalk-list-index"><rect height="20" width="40" x="5.0" y="1342.0" /><text x="10.0" y="1357.0"> 60</text></g></g><g class="chalk-list-item"><g class="chalk-list-index"><rect height="20" width="40" x="5.0" y="1364.0" /><text x="10.0" y="1379.0"> 61</text></g></g><g class="chalk-list-item"><g class="chalk-list-index"><rect height="20" width="40" x="5.0" y="1386.0" /><text x="10.0" y="1401.0"> 62</text></g></g><g class="chalk-list-item"><g class="chalk-list-index"><rect height="20" width="40" x="5.0" y="1408.0" /><text x="10.0" y="1423.0"> 63</text></g></g><g class="chalk-list-item"><g class="chalk-list-index"><rect height="20" width="40" x="5.0" y="1430.0" /><text x="10.0" y="1445.0"> 64</text></g></g><g class="chalk-list-item"><g class="chalk-list-index"><rect height="20" width="40" x="5.0" y="1452.0" /><text x="10.0" y="1467.0"> 65</text></g></g><g class="chalk-list-item"><g class="chalk-list-index"><rect height="20" width="40" x="5.0" y="1474.0" /><text x="10.0" y="1489.0"> 66</text></g></g><g class="chalk-list-item"><g class="chalk-list-index"><rect height="20" width="40" x="5.0" y="1496.0" /><text x="10.0" y="1511.0"> 67</text></g></g><g class="chalk-list-item"><g class="chalk-list-index"><rect height="20" width="40" x="5.0" y="1518.0" /><text x="10.0" y="1533.0"> 68</text></g></g><g class="chalk-list-item"><g class="chalk-list-index"><rect height="20" width="40" x="5.0" y="1540.0" /><text x="10.0" y="1555.0"> 69</text></g></g><g class="chalk-list-item"><g class="chalk-list-index"><rect height="20" width="40" x="5.0" y="1562.0" /><text x="10.0" y="1577.0"> 70</text></g></g><g class="chalk-list-item"><g class="chalk-list-index"><rect height="20" width="40" x="5.0" y="1584.0" /><text x="10.0" y="1599.0"> 71</text></g></g><g class="chalk-list-item"><g class="chalk-list-index"><rect height="20" width="40" x="5.0" y="1606.0" /><text x="10.0" y="1621.0"> 72</text></g></g><g class="chalk-list-item"><g class="chalk-list-index"><rect height="20" width="40" x="5.0" y="1628.0" /><text x="10.0" y="1643.0"> 73</text></g></g><g class="chalk-list-item"><g class="chalk-list-index"><rect height="20" width="40" x="5.0" y="1650.0" /><text x="10.0" y="1665.0"> 74</text></g></g><g class="chalk-list-item"><g class="chalk-list-index"><rect height="20" width="40" x="5.0" y="1672.0" /><text x="10.0" y="1687.0"> 75</text></g></g><g class="chalk-list-item"><g class="chalk-list-index"><rect height="20" width="40" x="5.0" y="1694.0" /><text x="10.0" y="1709.0"> 76</text></g></g><g class="chalk-list-item"><g class="chalk-list-index"><rect height="20" width="40" x="5.0" y="1716.0" /><text x="10.0" y="1731.0"> 77</text></g></g><g class="chalk-list-item"><g class="chalk-list-index"><rect height="20" width="40" x="5.0" y="1738.0" /><text x="10.0" y="1753.0"> 78</text></g></g><g class="chalk-list-item"><g class="chalk-list-index"><rect height="20" width="40" x="5.0" y="1760.0" /><text x="10.0" y="1775.0"> 79</text></g></g><g class="chalk-list-item"><g class="chalk-list-index"><rect height="20" width="40" x="5.0" y="1782.0" /><text x="10.0" y="1797.0"> 80</text></g></g><g class="chalk-list-item"><g class="chalk-list-index"><rect height="20" width="40" x="5.0" y="1804.0" /><text x="10.0" y="1819.0"> 81</text></g></g><g class="chalk-list-item"><g class="chalk-list-index"><rect height="20" width="40" x="5.0" y="1826.0" /><text x="10.0" y="1841.0"> 82</text></g></g><g class="chalk-list-item"><g class="chalk-list-index"><rect height="20" width="40" x="5.0" y="1848.0" /><text x="10.0" y="1863.0"> 83</text></g></g><g class="chalk-list-item"><g class="chalk-list-index"><rect height="20" width="40" x="5.0" y="1870.0" /><text x="10.0" y="1885.0"> 84</text></g></g><g class="chalk-list-item"><g class="chalk-list-index"><rect height="20" width="40" x="5.0" y="1892.0" /><text x="10.0" y="1907.0"> 85</text></g></g><g class="chalk-list-item"><g class="chalk-list-index"><rect height="20" width="40" x="5.0" y="1914.0" /><text x="10.0" y="1929.0"> 86</text></g></g><g class="chalk-list-item"><g class="chalk-list-index"><rect height="20" width="40" x="5.0" y="1936.0" /><text x="10.0" y="1951.0"> 87</text></g></g><g class="chalk-list-item"><g class="chalk-list-index"><rect height="20" width="40" x="5.0" y="1958.0" /><text x="10.0" y="1973.0"> 88</text></g></g><g class="chalk-list-item"><g class="chalk-list-index"><rect height="20" width="40" x="5.0" y="1980.0" /><text x="10.0" y="1995.0"> 89</text></g></g><g class="chalk-list-item"><g class="chalk-list-index"><rect height="20" width="40" x="5.0" y="2002.0" /><text x="10.0" y="2017.0"> 90</text></g></g><g class="chalk-list-item"><g class="chalk-list-index"><rect height="20" width="40" x="5.0" y="2024.0" /><text x="10.0" y="2039.0"> 91</text></g></g><g class="chalk-list-item"><g class="chalk-list-index"><rect height="20" width="40" x="5.0" y="2046.0" /><text x="10.0" y="2061.0"> 92</text></g></g><g class="chalk-list-item"><g class="chalk-list-index"><rect height="20" width="40" x="5.0" y="2068.0" /><text x="10.0" y="2083.0"> 93</text></g></g><g class="chalk-list-item"><g class="chalk-list-index"><rect height="20" width="40" x="5.0" y="2090.0" /><text x="10.0" y="2105.0"> 94</text></g></g><g class="chalk-list-item"><g class="chalk-list-index"><rect height="20" width="40" x="5.0" y="2112.0" /><text x="10.0" y="2127.0"> 95</text></g></g><g class="chalk-list-item"><g class="chalk-list-index"><rect height="20" width="40" x="5.0" y="2134.0" /><text x="10.0" y="2149.0"> 96</text></g></g><g class="chalk-list-item"><g class="chalk-list-index"><rect height="20" width="40" x="5.0" y="2156.0" /><text x="10.0" y="2171.0"> 97</text></g></g><g class="chalk-list-item"><g class="chalk-list-index"><rect height="20" width="40" x="5.0" y="2178.0" /><text x="10.0" y="2193.0"> 98</text></g></g><g class="chalk-list-item"><g class="chalk-list-index"><rect height="20" width="40" x="5.0" y="2200.0" /><text x="10.0" y="2215.0"> 99</text></g></g><g class="chalk-list-item"><g class="chalk-list-index"><rect height="20" width="40" x="5.0" y="2222.0" /><text x="10.0" y="2237.0">100</text></g></g><g class="chalk-list-item"><g class="chalk-list-index"><rect height="20" width="40" x="5.0" y="2244.0" /><text x="10.0" y="2259.0">101</text></g></g><g class="chalk-list-item"><g class="chalk-list-index"><rect height="20" width="40" x="5.0" y="2266.0" /><text x="10.0" y="2281.0">102</text></g></g><g class="chalk-list-item"><g class="chalk-list-index"><rect height="20" width="40" x="5.0" y="2288.0" /><text x="10.0" y="2303.0">103</text></g></g><g class="chalk-list-item"><g class="chalk-list-index"><rect height="20" width="40" x="5.0" y="2310.0" /><text x="10.0" y="2325.0">104</text></g></g><g class="chalk-list-item"><g class="chalk-list-index"><rect height="20" width="40" x="5.0" y="2332.0" /><text x="10.0" y="2347.0">105</text></g></g><g class="chalk-list-item"><g class="chalk-list-index"><rect height="20" width="40" x="5.0" y="2354.0" /><text x="10.0" y="2369.0">106</text></g></g><g class="chalk-list-item"><g class="chalk-list-index"><rect height="20" width="40" x="5.0" y="2376.0" /><text x="10.0" y="2391.0">107</text></g></g><g class="chalk-list-item"><g class="chalk-list-index"><rect height="20" width="40" x="5.0" y="2398.0" /><text x="10.0" y="2413.0">108</text></g></g><g class="chalk-list-item"><g class="chalk-list-index"><rect height="20" width="40" x="5.0" y="2420.0" /><text x="10.0" y="2435.0">109</text></g></g><g class="chalk-list-item"><g class="chalk-list-index"><rect height="20" width="40" x="5.0" y="2442.0" /><text x="10.0" y="2457.0">110</text></g></g><g class="chalk-list-item"><g class="chalk-list-index"><rect height="20" width="40" x="5.0" y="2464.0" /><text x="10.0" y="2479.0">111</text></g></g><g class="chalk-list-item"><g class="chalk-list-index"><rect height="20" width="40" x="5.0" y="2486.0" /><text x="10.0" y="2501.0">112</text></g></g><g class="chalk-list-item"><g class="chalk-list-index"><rect height="20" width="40" x="5.0" y="2508.0" /><text x="10.0" y="2523.0">113</text></g></g><g class="chalk-list-item"><g class="chalk-list-index"><rect height="20" width="40" x="5.0" y="2530.0" /><text x="10.0" y="2545.0">114</text></g></g><g class="chalk-list-item"><g class="chalk-list-index"><rect height="20" width="40" x="5.0" y="2552.0" /><text x="10.0" y="2567.0">115</text></g></g><g class="chalk-list-item"><g class="chalk-list-index"><rect height="20" width="40" x="5.0" y="2574.0" /><text x="10.0" y="2589.0">116</text></g></g><g class="chalk-list-item"><g class="chalk-list-index"><rect height="20" width="40" x="5.0" y="2596.0" /><text x="10.0" y="2611.0">117</text></g></g><g class="chalk-list-item"><g class="chalk-list-index"><rect height="20" width="40" x="5.0" y="2618.0" /><text x="10.0" y="2633.0">118</text></g></g><g class="chalk-list-item"><g class="chalk-list-index"><rect height="20" width="40" x="5.0" y="2640.0" /><text x="10.0" y="2655.0">119</text></g></g><g class="chalk-list-item"><g class="chalk-list-index"><rect height="20" width="40" x="5.0" y="2662.0" /><text x="10.0" y="2677.0">120</text></g></g><g class="chalk-list-item"><g class="chalk-list-index"><rect height="20" width="40" x="5.0" y="2684.0" /><text x="10.0" y="2699.0">121</text></g></g><g class="chalk-list-item"><g class="chalk-list-index"><rect height="20" width="40" x="5.0" y="2706.0" /><text x="10.0" y="2721.0">122</text></g></g><g class="chalk-list"><rect height="2731" width="60" x="0.0" y="0.0" /><text x="5.0" y="15.0">title</text></g></svg>